# xmcd
#
# Track frame offsets:
#       150
#       19165
#       31153
#       49644
#       62974
#       71158
#
# Disc length: 1159 seconds
#
# Revision: 0
# Processed by: cddbd v1.5PL3 Copyright (c) Steve Scherf et al.
# Submitted via: CD-DA_X-Tractor v0.24
#
DISCID=4e048506
DTITLE=Darwin Radio - Brand New Evolution
DYEAR=2002
DGENRE=Metal
TTITLE0=The Only Thing
TTITLE1=I Didn't Know You Were A Bleeder
TTITLE2=This Year's Girl
TTITLE3=Get Down
TTITLE4=Grandtheftautomatic
TTITLE5=The Tragedy Blueprint
EXTD=
EXTT0=
EXTT1=
EXTT2=
EXTT3=
EXTT4=
EXTT5=
PLAYORDER=
